<?xml version="1.0" encoding="UTF-8" standalone="no"?>
<svg
   xmlns:dc="http://purl.org/dc/elements/1.1/"
   xmlns:cc="http://creativecommons.org/ns#"
   xmlns:rdf="http://www.w3.org/1999/02/22-rdf-syntax-ns#"
   xmlns:svg="http://www.w3.org/2000/svg"
   xmlns="http://www.w3.org/2000/svg"
   id="svg131"
   version="1.1"
   viewBox="0 0 42.668 26.452"
   height="26.452mm"
   width="42.667999mm">
  <defs
     id="defs125">
    <clipPath
       id="clipPath1112-2-6"
       clipPathUnits="userSpaceOnUse">
      <path
         id="path1114-4-7"
         d="M 73.987618,74.0972 H 96.109271 L 84.975216,52.35857 Z"
         style="fill:#800000;stroke:none;stroke-width:0.27377442px;stroke-linecap:butt;stroke-linejoin:miter;stroke-opacity:1" />
    </clipPath>
    <clipPath
       id="clipPath1112-0-9-5"
       clipPathUnits="userSpaceOnUse">
      <path
         id="path1114-6-9-3"
         d="M 73.987618,74.0972 H 96.109271 L 84.975216,52.35857 Z"
         style="fill:#800000;stroke:none;stroke-width:0.27377442px;stroke-linecap:butt;stroke-linejoin:miter;stroke-opacity:1" />
    </clipPath>
  </defs>
  <metadata
     id="metadata128">
    <rdf:RDF>
      <cc:Work
         rdf:about="">
        <dc:format>image/svg+xml</dc:format>
        <dc:type
           rdf:resource="http://purl.org/dc/dcmitype/StillImage" />
        <dc:title></dc:title>
      </cc:Work>
    </rdf:RDF>
  </metadata>
  <g
     transform="translate(0,-270.548)"
     id="layer1">
    <g
       transform="translate(-99.691534,-12.027129)"
       id="g184">
      <g
         id="text1326-3-0-8-3-0-3-9-8"
         style="font-style:normal;font-variant:normal;font-weight:600;font-stretch:normal;font-size:9.96977615px;line-height:1.25;font-family:Poppins;-inkscape-font-specification:'Poppins, Semi-Bold';font-variant-ligatures:normal;font-variant-caps:normal;font-variant-numeric:normal;font-feature-settings:normal;text-align:start;letter-spacing:0px;word-spacing:0px;writing-mode:lr-tb;text-anchor:start;fill:#4d4d4d;fill-opacity:1;stroke:none;stroke-width:0.24924661"
         aria-label="ADMINISTRACIÓN">
        <g
           id="g96"
           transform="matrix(1.6282813,0,0,1.6282813,-44.118259,104.57433)">
          <path
             d="m 114.52436,109.36218 v 2.09359 h -4.48301 v 13.97248 h -2.61701 v -13.97248 h -4.46027 v -2.09359 z"
             style="font-style:normal;font-variant:normal;font-weight:500;font-stretch:normal;font-size:25.12521172px;line-height:1.25;font-family:Poppins;-inkscape-font-specification:'Poppins, Medium';font-variant-ligatures:normal;font-variant-caps:normal;font-variant-numeric:normal;font-feature-settings:normal;text-align:start;letter-spacing:0px;word-spacing:0px;writing-mode:lr-tb;text-anchor:start;fill:#ffffff;fill-opacity:1;stroke:none;stroke-width:0.56891197"
             id="path945-2-1-6" />
          <path
             transform="matrix(0.1624924,0,0,0.1624924,88.319993,109.31821)"
             id="path848-6-2"
             d="M 81.244141 0.27148438 L 46.087891 69.824219 L 46.087891 82.085938 C 46.087891 85.550038 46.226355 88.150793 46.503906 89.882812 C 46.72607 91.614832 47.394562 93.064934 48.503906 94.238281 C 49.613127 95.411567 51.000046 96.166737 52.664062 96.501953 C 54.328079 96.837353 56.820466 97.118279 60.148438 97.341797 L 60.148438 99.414062 L 101.98047 99.414062 L 101.98047 96.800781 C 105.30844 96.578617 109.588 96.29889 111.25195 95.964844 C 112.91597 95.630674 114.30277 94.879854 115.41211 93.710938 C 116.52145 92.542144 117.18439 91.092499 117.40625 89.367188 C 117.6838 87.641753 117.90473 85.055353 117.82227 81.605469 L 117.57422 71.210938 L 81.244141 0.27148438 z M 81.816406 37.222656 L 104.38477 82.630859 L 59.542969 82.630859 L 81.816406 37.222656 z "
             style="fill:#80c7f2;fill-opacity:1;stroke:none;stroke-width:1.24859595px;stroke-linecap:butt;stroke-linejoin:miter;stroke-opacity:1" />
          <path
             transform="matrix(0.74107464,0,0,0.74365232,38.548573,70.381564)"
             clip-path="url(#clipPath1112-2-6)"
             d="m 92.604452,53.745009 h -1.769533 c -0.972939,0 -1.733048,0.04865 -2.280326,0.145941 -10.241726,-0.779201 10.698442,-1.532379 14.977187,-1.532379 l 0.21891,5.582238 h -0.78443 c -0.13378,-0.63241 -0.26756,-1.155365 -0.40134,-1.568864 -0.12162,-0.413499 -0.27972,-0.784432 -0.47431,-1.112798 -0.19459,-0.340529 -0.40133,-0.595926 -0.62024,-0.766191 -0.21892,-0.182426 -0.51688,-0.334448 -0.89389,-0.456065 -0.37701,-0.121617 -0.784434,-0.200668 -1.222262,-0.237154 -0.425661,-0.03649 -0.966859,-0.05473 -1.623593,-0.05473 h -1.769533 v 16.764959 c 0,1.204012 0.188507,1.988444 0.565521,2.353297 0.377014,0.35269 1.240497,0.559439 2.59045,0.620248 v 1.043956 h -9.595612 v -1.043956 c 0.729705,-0.04865 1.668199,-0.109455 2.033051,-0.182426 0.364852,-0.07297 0.668896,-0.237154 0.912131,-0.492551 0.243234,-0.255397 0.389175,-0.571602 0.437822,-0.948615 0.06081,-0.377014 0.109172,-0.942748 0.09121,-1.696563 z"
             style="font-style:normal;font-variant:normal;font-weight:normal;font-stretch:normal;font-size:32.97938919px;line-height:1.25;font-family:Tholoth;-inkscape-font-specification:'Tholoth, Normal';font-variant-ligatures:normal;font-variant-caps:normal;font-variant-numeric:normal;font-feature-settings:normal;text-align:start;letter-spacing:0px;word-spacing:0px;writing-mode:lr-tb;text-anchor:start;fill:#ffffff;fill-opacity:1;stroke:none;stroke-width:0.00636134;stroke-miterlimit:4;stroke-dasharray:none;stroke-opacity:1"
             id="path1091-3-1" />
          <path
             d="m 99.182572,121.12118 c 0,0.77325 -0.18589,1.49446 -0.55767,2.16364 -0.37174,0.65428 -0.9368,1.18217 -1.69519,1.58366 -0.75839,0.40151 -1.68777,0.60227 -2.78815,0.60227 -1.07065,0 -2.02978,-0.18588 -2.87739,-0.55765 -0.84762,-0.38663 -1.52422,-0.92196 -2.02979,-1.60599 -0.50561,-0.68404 -0.79558,-1.52545 -0.86992,-2.41764 h 2.72125 c 0.0744,0.68402 0.36432,1.32468 0.86991,1.81539 0.52046,0.49072 1.21193,0.73608 2.0744,0.73608 0.77326,0 1.36807,-0.20818 1.78442,-0.62455 0.43123,-0.41635 0.64685,-0.95168 0.64685,-1.60599 0,-0.56507 -0.15613,-1.02605 -0.46839,-1.38294 -0.31228,-0.37174 -0.69891,-0.66171 -1.15989,-0.8699 -0.46097,-0.20819 -1.09295,-0.44611 -1.89595,-0.71376 -0.98144,-0.31227 -1.78443,-0.62454 -2.40898,-0.93683 -0.60969,-0.31229 -1.13015,-0.76583 -1.56138,-1.36064 -0.43123,-0.5948 -0.64685,-1.37549 -0.64685,-2.34207 0,-0.84758 0.20818,-1.59108 0.62455,-2.23051 0.41636,-0.63943 1.01117,-1.13015 1.78442,-1.47216 0.77325,-0.35689 1.66546,-0.53533 2.67665,-0.53533 1.60598,0 2.87738,0.38663 3.81421,1.15989 0.95169,0.77324 1.49446,1.78441 1.62829,3.03352 h -2.74356 c -0.10407,-0.59481 -0.3866,-1.10039 -0.84759,-1.51675 -0.44612,-0.43125 -1.06324,-0.64688 -1.85135,-0.64688 -0.71377,0 -1.28627,0.18588 -1.71752,0.55764 -0.43123,0.35689 -0.64685,0.87735 -0.64685,1.56139 0,0.53531 0.1487,0.98141 0.44611,1.33831 0.29741,0.34202 0.66917,0.61712 1.11527,0.8253 0.46097,0.19333 1.08552,0.42381 1.87365,0.69146 0.99631,0.31227 1.80673,0.63198 2.43127,0.95915 0.63943,0.31227 1.17476,0.77324 1.606,1.38292 0.44611,0.60968 0.66917,1.41267 0.66917,2.40897 z"
             style="font-style:normal;font-variant:normal;font-weight:500;font-stretch:normal;font-size:25.12521172px;line-height:1.25;font-family:Poppins;-inkscape-font-specification:'Poppins, Medium';font-variant-ligatures:normal;font-variant-caps:normal;font-variant-numeric:normal;font-feature-settings:normal;text-align:start;letter-spacing:0px;word-spacing:0px;writing-mode:lr-tb;text-anchor:start;fill:#ffffff;fill-opacity:1;stroke:none;stroke-width:0.55763406"
             id="path941-7-4-2" />
          <path
             transform="matrix(-0.74107464,0,0,0.74651102,164.52378,70.249274)"
             clip-path="url(#clipPath1112-0-9-5)"
             d="m 92.604452,53.745009 c -12.299385,2.892004 10.697818,-7.238861 11.146238,4.1958 h -0.78443 c -0.13378,-0.63241 -0.26756,-1.155365 -0.40134,-1.568864 -0.12162,-0.413499 -0.27972,-0.784432 -0.47431,-1.112798 -0.19459,-0.340529 -0.40133,-0.595926 -0.62024,-0.766191 -0.21892,-0.182426 -0.51688,-0.334448 -0.89389,-0.456065 -0.37701,-0.121617 -0.784434,-0.200668 -1.222262,-0.237154 -0.425661,-0.03649 -0.966859,-0.05473 -1.623593,-0.05473 h -1.769533 v 16.764959 c 0,1.204012 0.188507,1.988444 0.565521,2.353297 0.377014,0.35269 1.240497,0.559439 2.59045,0.620248 v 0.620249 h -9.595612 v -0.620249 c 0.729705,-0.04865 1.276983,-0.109455 1.641835,-0.182426 0.364852,-0.07297 0.668896,-0.237154 0.912131,-0.492551 0.243234,-0.255397 0.389175,-0.571602 0.437822,-0.948615 0.06081,-0.377014 0.09121,-0.942535 0.09121,-1.696563 z"
             style="font-style:normal;font-variant:normal;font-weight:normal;font-stretch:normal;font-size:32.97938919px;line-height:1.25;font-family:Tholoth;-inkscape-font-specification:'Tholoth, Normal';font-variant-ligatures:normal;font-variant-caps:normal;font-variant-numeric:normal;font-feature-settings:normal;text-align:start;letter-spacing:0px;word-spacing:0px;writing-mode:lr-tb;text-anchor:start;fill:#ffffff;fill-opacity:1;stroke:none;stroke-width:0.00636941;stroke-miterlimit:4;stroke-dasharray:none;stroke-opacity:1"
             id="path1091-64-5-70" />
        </g>
      </g>
    </g>
  </g>
</svg>
